<svg width="61" height="60" viewBox="0 0 61 60" fill="none" xmlns="http://www.w3.org/2000/svg">
<path fill-rule="evenodd" clip-rule="evenodd" d="M34.9758 3.42541C30.6845 5.30398 27.051 6.95824 26.9012 7.10149C26.6375 7.35375 26.629 7.4342 26.629 9.67053C26.629 11.9602 26.6315 11.9815 26.926 12.276C27.3132 12.6634 27.6433 12.6506 28.625 12.2101C29.0699 12.0104 29.4559 11.8471 29.483 11.8471C29.5101 11.8471 29.5323 13.0993 29.5323 14.6298V17.4125H16.2808H3.02931L2.73246 17.7095C2.44335 17.9986 2.43548 18.0551 2.43548 19.8322C2.43548 21.6094 2.44335 21.6659 2.73246 21.955C3.01843 22.2411 3.08944 22.252 4.66794 22.252H6.30645V24.6717V27.0915H4.66794C3.08944 27.0915 3.01843 27.1024 2.73246 27.3885C2.44335 27.6775 2.43548 27.734 2.43548 29.5112C2.43548 31.2884 2.44335 31.3449 2.73246 31.6339C2.97621 31.8779 3.14919 31.931 3.7002 31.931H4.37097V43.5457V55.1605H2.73246C1.15395 55.1605 1.08294 55.1714 0.796976 55.4575C0.507863 55.7466 0.5 55.8031 0.5 57.5803C0.5 59.3574 0.507863 59.4139 0.796976 59.703L1.09383 60H30.5H59.9062L60.203 59.703C60.4921 59.4139 60.5 59.3574 60.5 57.5803C60.5 55.8031 60.4921 55.7466 60.203 55.4575C59.9171 55.1714 59.846 55.1605 58.2675 55.1605H56.629V43.5457V31.931H57.2998C57.8508 31.931 58.0238 31.8779 58.2675 31.6339C58.5567 31.3449 58.5645 31.2884 58.5645 29.5112C58.5645 27.734 58.5567 27.6775 58.2675 27.3885C58.0238 27.1446 57.8508 27.0915 57.2998 27.0915H56.629V19.4693C56.629 15.2771 56.6512 11.8471 56.6783 11.8471C56.7054 11.8471 57.0914 12.0104 57.5363 12.2101C58.5179 12.6506 58.8481 12.6634 59.2353 12.276C59.5297 11.9816 59.5323 11.9591 59.5323 9.68819C59.5323 7.68271 59.5059 7.36609 59.3206 7.14649C59.0716 6.85153 43.43 -0.0143749 43.0399 2.26112e-05C42.8959 0.00534605 39.2671 1.54684 34.9758 3.42541ZM50.2314 5.14355C54.116 6.84669 57.3625 8.26805 57.4456 8.30217C57.5469 8.34391 57.5968 8.654 57.5968 9.24381V10.1231L50.4508 6.9926C46.5206 5.27071 43.2079 3.86193 43.0892 3.86193C42.9227 3.86193 34.2454 7.60661 29.2601 9.82975L28.5645 10.14V9.2553V8.37076L35.7319 5.22195C39.6738 3.49014 42.9598 2.06733 43.0338 2.06019C43.1079 2.05305 46.3468 3.44054 50.2314 5.14355ZM48.8987 8.4315L54.6331 10.9443L54.6642 19.0179L54.6952 27.0915H43.0806H31.466L31.4971 19.0225L31.5282 10.9535L37.2137 8.44795C40.3407 7.06991 42.9588 5.93699 43.0318 5.93057C43.1047 5.92404 45.7448 7.04946 48.8987 8.4315ZM32.7325 12.87L32.4355 13.1669V16.9286V20.6902L32.7325 20.9871L33.0293 21.2841H37.2742H41.5191L41.8159 20.9871L42.1129 20.6902V16.9286V13.1669L41.8159 12.87L41.5191 12.573H37.2742H33.0293L32.7325 12.87ZM44.3454 12.87L44.0484 13.1669V16.9286V20.6902L44.3454 20.9871L44.6422 21.2841H48.8871H53.132L53.4288 20.9871L53.7258 20.6902V16.9286V13.1669L53.4288 12.87L53.132 12.573H48.8871H44.6422L44.3454 12.87ZM40.1774 16.9286V19.3483H37.2742H34.371V16.9286V14.5088H37.2742H40.1774V16.9286ZM51.7903 16.9286V19.3483H48.8871H45.9839V16.9286V14.5088H48.8871H51.7903V16.9286ZM29.5323 19.8322V20.3162H16.9516H4.37097V19.8322V19.3483H16.9516H29.5323V19.8322ZM12.1129 24.6717V27.0915H10.1774H8.24194V24.6717V22.252H10.1774H12.1129V24.6717ZM17.9194 24.6717V27.0915H15.9839H14.0484V24.6717V22.252H15.9839H17.9194V24.6717ZM23.7258 24.6717V27.0915H21.7903H19.8548V24.6717V22.252H21.7903H23.7258V24.6717ZM29.5323 24.6717V27.0915H27.5968H25.6613V24.6717V22.252H27.5968H29.5323V24.6717ZM56.629 29.5112V29.9952H30.5H4.37097V29.5112V29.0273H30.5H56.629V29.5112ZM29.5323 43.5457V55.1605H28.5645H27.5968V48.3852C27.5968 42.3549 27.6173 41.6099 27.7837 41.6099C27.8865 41.6099 28.1042 41.4763 28.2675 41.3129C28.5567 41.0239 28.5645 40.9674 28.5645 39.1902C28.5645 37.413 28.5567 37.3565 28.2675 37.0675L27.9707 36.7705H17.9194H7.86802L7.57117 37.0675C7.28206 37.3565 7.27419 37.413 7.27419 39.1902C7.27419 40.9674 7.28206 41.0239 7.57117 41.3129C7.73448 41.4763 7.95222 41.6099 8.05504 41.6099C8.22137 41.6099 8.24194 42.3549 8.24194 48.3852V55.1605H7.27419H6.30645V43.5457V31.931H17.9194H29.5323V43.5457ZM54.6935 43.5457V55.1605H48.8871H43.0806V48.6823V42.2039L42.7837 41.907L42.4868 41.6099H37.7581H33.0293L32.7325 41.907L32.4355 42.2039V48.6823V55.1605H31.9516H31.4677V43.5457V31.931H43.0806H54.6935V43.5457ZM26.629 39.1902V39.6741H17.9194H9.20968V39.1902V38.7062H17.9194H26.629V39.1902ZM25.6613 48.3852V55.1605H17.9194H10.1774V48.3852V41.6099H17.9194H25.6613V48.3852ZM44.3454 41.907L44.0484 42.2039V45.9655V49.7271L44.3454 50.024L44.6422 50.321H48.8871H53.132L53.4288 50.024L53.7258 49.7271V45.9655V42.2039L53.4288 41.907L53.132 41.6099H48.8871H44.6422L44.3454 41.907ZM41.1452 49.3531V55.1605H37.7581H34.371V49.3531V43.5457H37.7581H41.1452V49.3531ZM51.7903 45.9655V48.3852H48.8871H45.9839V45.9655V43.5457H48.8871H51.7903V45.9655ZM38.5389 47.7144C38.2594 47.994 38.2419 48.0898 38.2419 49.3531C38.2419 50.6165 38.2594 50.7123 38.5389 50.9919C38.726 51.1792 38.974 51.2889 39.2097 51.2889C39.4453 51.2889 39.6933 51.1792 39.8804 50.9919C40.16 50.7123 40.1774 50.6165 40.1774 49.3531C40.1774 48.0898 40.16 47.994 39.8804 47.7144C39.6933 47.5271 39.4453 47.4173 39.2097 47.4173C38.974 47.4173 38.726 47.5271 38.5389 47.7144ZM58.5645 57.5803V58.0642H30.5H2.43548V57.5803V57.0963H30.5H58.5645V57.5803Z" fill="#54D4BD"/>
</svg>
