<svg width="72" height="72" viewBox="0 0 72 72" fill="none" xmlns="http://www.w3.org/2000/svg">
<rect width="72" height="72" rx="10" fill="#F0F5FF"/>
<g clip-path="url(#clip0_373_6323)">
<path d="M48.8 43.7184V40C48.8 38.5147 48.21 37.0904 47.1598 36.0402C46.1096 34.99 44.6852 34.4 43.2 34.4H40C39.3634 34.4 38.753 34.1471 38.3029 33.697C37.8528 33.2469 37.6 32.6365 37.6 32V28.2816C38.2675 27.9767 38.8335 27.4865 39.2306 26.8693C39.6277 26.2521 39.8392 25.5339 39.84 24.8C39.84 23.7815 39.4354 22.8048 38.7152 22.0847C37.9951 21.3645 37.0184 20.96 36 20.96C34.9815 20.96 34.0048 21.3645 33.2847 22.0847C32.5645 22.8048 32.16 23.7815 32.16 24.8C32.16 26.3472 33.0816 27.6736 34.4 28.2816V32C34.4 32.6365 34.1471 33.2469 33.697 33.697C33.2469 34.1471 32.6365 34.4 32 34.4H28.8C27.3147 34.4 25.8904 34.99 24.8402 36.0402C23.79 37.0904 23.2 38.5147 23.2 40V43.7184C22.4028 44.0819 21.7542 44.7075 21.3622 45.4911C20.9702 46.2747 20.8584 47.1689 21.0454 48.0248C21.2325 48.8808 21.7071 49.6468 22.3902 50.1954C23.0734 50.744 23.9238 51.0421 24.8 51.04C25.6752 51.0404 26.5243 50.7415 27.2062 50.1928C27.8881 49.6441 28.3618 48.8786 28.5487 48.0236C28.7355 47.1685 28.6243 46.2752 28.2334 45.4921C27.8426 44.7089 27.1956 44.0831 26.4 43.7184V40C26.4 39.3634 26.6528 38.753 27.1029 38.3029C27.553 37.8528 28.1634 37.6 28.8 37.6H32C32.8624 37.6 33.6704 37.3888 34.4 37.04V43.7184C33.6028 44.0819 32.9542 44.7075 32.5622 45.4911C32.1702 46.2747 32.0584 47.1689 32.2454 48.0248C32.4325 48.8808 32.9071 49.6468 33.5902 50.1954C34.2734 50.744 35.1238 51.0421 36 51.04C36.8752 51.0404 37.7243 50.7415 38.4062 50.1928C39.0881 49.6441 39.5618 48.8786 39.7487 48.0236C39.9355 47.1685 39.8243 46.2752 39.4334 45.4921C39.0426 44.7089 38.3956 44.0831 37.6 43.7184V37.04C38.3296 37.3888 39.1376 37.6 40 37.6H43.2C43.8365 37.6 44.4469 37.8528 44.897 38.3029C45.3471 38.753 45.6 39.3634 45.6 40V43.7184C44.9324 44.0233 44.3664 44.5134 43.9693 45.1306C43.5722 45.7478 43.3607 46.4661 43.36 47.2C43.36 48.2184 43.7645 49.1951 44.4847 49.9153C45.2048 50.6354 46.1815 51.04 47.2 51.04C48.2184 51.04 49.1951 50.6354 49.9152 49.9153C50.6354 49.1951 51.04 48.2184 51.04 47.2C51.04 45.6528 50.12 44.3264 48.8 43.7184ZM36 22.584C36.5872 22.584 37.1505 22.8173 37.5658 23.2325C37.9811 23.6478 38.2144 24.2111 38.2144 24.7984C38.2144 25.3857 37.9811 25.9489 37.5658 26.3642C37.1505 26.7795 36.5872 27.0128 36 27.0128C35.4127 27.0128 34.8494 26.7795 34.4341 26.3642C34.0189 25.9489 33.7856 25.3857 33.7856 24.7984C33.7856 24.2111 34.0189 23.6478 34.4341 23.2325C34.8494 22.8173 35.4127 22.584 36 22.584ZM24.8 49.416C24.5089 49.416 24.2208 49.3586 23.9519 49.2473C23.6831 49.1359 23.4388 48.9727 23.233 48.7669C23.0272 48.5611 22.864 48.3168 22.7526 48.048C22.6413 47.7791 22.584 47.491 22.584 47.2C22.584 46.909 22.6413 46.6208 22.7526 46.3519C22.864 46.0831 23.0272 45.8388 23.233 45.633C23.4388 45.4272 23.6831 45.264 23.9519 45.1526C24.2208 45.0413 24.5089 44.984 24.8 44.984C25.3877 44.984 25.9513 45.2174 26.3669 45.633C26.7825 46.0486 27.016 46.6122 27.016 47.2C27.016 47.7877 26.7825 48.3513 26.3669 48.7669C25.9513 49.1825 25.3877 49.416 24.8 49.416ZM36 49.416C35.7089 49.416 35.4208 49.3586 35.1519 49.2473C34.8831 49.1359 34.6388 48.9727 34.433 48.7669C34.2272 48.5611 34.064 48.3168 33.9526 48.048C33.8413 47.7791 33.784 47.491 33.784 47.2C33.784 46.909 33.8413 46.6208 33.9526 46.3519C34.064 46.0831 34.2272 45.8388 34.433 45.633C34.6388 45.4272 34.8831 45.264 35.1519 45.1526C35.4208 45.0413 35.7089 44.984 36 44.984C36.5877 44.984 37.1513 45.2174 37.5669 45.633C37.9825 46.0486 38.216 46.6122 38.216 47.2C38.216 47.7877 37.9825 48.3513 37.5669 48.7669C37.1513 49.1825 36.5877 49.416 36 49.416ZM47.2 49.416C46.9089 49.416 46.6208 49.3586 46.3519 49.2473C46.0831 49.1359 45.8388 48.9727 45.633 48.7669C45.4272 48.5611 45.264 48.3168 45.1526 48.048C45.0413 47.7791 44.984 47.491 44.984 47.2C44.984 46.909 45.0413 46.6208 45.1526 46.3519C45.264 46.0831 45.4272 45.8388 45.633 45.633C45.8388 45.4272 46.0831 45.264 46.3519 45.1526C46.6208 45.0413 46.9089 44.984 47.2 44.984C47.7877 44.984 48.3513 45.2174 48.7669 45.633C49.1825 46.0486 49.416 46.6122 49.416 47.2C49.416 47.7877 49.1825 48.3513 48.7669 48.7669C48.3513 49.1825 47.7877 49.416 47.2 49.416Z" fill="#54D4BD"/>
</g>
<defs>
<clipPath id="clip0_373_6323">
<rect width="32" height="32" fill="white" transform="translate(20 20)"/>
</clipPath>
</defs>
</svg>
