<svg width="72" height="72" viewBox="0 0 72 72" fill="none" xmlns="http://www.w3.org/2000/svg">
<rect width="72" height="72" rx="10" fill="#F0F5FF"/>
<path d="M33.905 40.3452L33.8981 40.3292C33.7602 40.2967 33.623 40.2609 33.4867 40.2218L33.4764 40.2184C32.1725 39.8442 30.9685 39.184 29.9519 38.2858C28.8334 37.2992 27.9734 36.054 27.4466 34.6587C26.9199 33.2634 26.7424 31.7605 26.9298 30.2809C27.1171 28.8013 27.6636 27.3901 28.5215 26.1701C29.3794 24.9502 30.5227 23.9586 31.8518 23.2819C33.1808 22.6052 34.6552 22.2639 36.1464 22.2878C37.6376 22.3116 39.1003 22.6999 40.407 23.4188C41.7138 24.1376 42.8248 25.1652 43.6433 26.4119C44.4617 27.6587 44.9628 29.0867 45.1027 30.5715C45.1473 31.0435 44.7599 31.4287 44.2856 31.4287C43.8124 31.4287 43.4341 31.0435 43.3793 30.5727C43.2282 29.2736 42.7368 28.0374 41.9548 26.9891C41.1728 25.9408 40.1279 25.1175 38.9257 24.6025C37.7236 24.0875 36.4067 23.899 35.1083 24.056C33.81 24.2131 32.576 24.7101 31.5313 25.497C30.4866 26.2838 29.6682 27.3325 29.1587 28.537C28.6492 29.7415 28.4668 31.0592 28.6298 32.3569C28.7929 33.6545 29.2956 34.8861 30.0872 35.9272C30.8788 36.9683 31.9313 37.7819 33.1381 38.2858L33.1839 38.3052C33.4124 38.399 33.6479 38.4812 33.8879 38.5532C34.0901 38.0645 34.4557 37.661 34.9222 37.4116C35.3887 37.1622 35.9273 37.0823 36.4461 37.1856C36.9649 37.2888 37.4319 37.5689 37.7673 37.9779C38.1027 38.387 38.2859 38.8997 38.2856 39.4287C38.2861 39.954 38.1056 40.4634 37.7746 40.8713C37.4436 41.2792 36.9821 41.5606 36.468 41.6681C35.9538 41.7757 35.4183 41.7029 34.9515 41.462C34.4847 41.2211 34.1151 40.8267 33.905 40.3452ZM32.7781 41.799C30.7483 41.1667 28.9484 39.9532 27.601 38.3087C26.7664 38.4064 25.9967 38.8073 25.4382 39.4351C24.8797 40.063 24.5712 40.8741 24.5713 41.7144V42.5315C24.5713 46.7807 29.3827 49.7144 35.9999 49.7144C42.617 49.7144 47.4284 46.6195 47.4284 42.5315V41.7144C47.4284 40.8051 47.0672 39.933 46.4242 39.29C45.7812 38.647 44.9092 38.2858 43.9999 38.2858H39.8341C40.1037 39.1887 40.0459 40.1578 39.6709 41.0222C39.2958 41.8867 38.6277 42.5909 37.7842 43.0109C36.9407 43.4309 35.976 43.5396 35.0601 43.3179C34.1443 43.0962 33.3362 42.5583 32.7781 41.799ZM41.7141 31.4287C41.7141 29.7007 40.9484 28.1521 39.7359 27.1041C39.1275 26.5793 38.4152 26.1886 37.6456 25.9577C36.876 25.7268 36.0664 25.6608 35.2695 25.7639C34.4727 25.8671 33.7065 26.1372 33.0211 26.5565C32.3357 26.9759 31.7465 27.535 31.2918 28.1975C30.8372 28.86 30.5273 29.611 30.3826 30.4013C30.2378 31.1917 30.2613 32.0037 30.4516 32.7843C30.6419 33.5649 30.9947 34.2967 31.487 34.9317C31.9792 35.5668 32.5999 36.0909 33.3084 36.4698C34.0439 35.7986 35.0041 35.4272 35.9999 35.4287C36.9959 35.4274 37.9564 35.7987 38.6924 36.4698C39.6055 35.982 40.3689 35.2554 40.9011 34.3675C41.4333 33.4796 41.7143 32.4639 41.7141 31.4287Z" fill="#54D4BD"/>
</svg>
