<svg width="381" height="35" viewBox="0 0 381 35" fill="none" xmlns="http://www.w3.org/2000/svg">
<path d="M10.4862 22.23C10.355 22.2303 10.2249 22.2046 10.1036 22.1545C9.98229 22.1044 9.87205 22.0308 9.77923 21.938L5.53723 17.695C5.44166 17.6028 5.3654 17.4925 5.31291 17.3706C5.26041 17.2486 5.23274 17.1174 5.23149 16.9846C5.23024 16.8519 5.25545 16.7202 5.30565 16.5972C5.35584 16.4743 5.43001 16.3626 5.52384 16.2686C5.61766 16.1747 5.72926 16.1004 5.85212 16.05C5.97498 15.9996 6.10664 15.9742 6.23942 15.9753C6.3722 15.9763 6.50344 16.0038 6.62548 16.0562C6.74752 16.1085 6.85792 16.1846 6.95023 16.28L10.4852 19.815L16.8502 13.452C17.0377 13.2644 17.2921 13.1589 17.5574 13.1588C17.8226 13.1587 18.0771 13.264 18.2647 13.4515C18.4524 13.639 18.5578 13.8934 18.5579 14.1587C18.558 14.4239 18.4527 14.6784 18.2652 14.866L11.1932 21.938C11.1004 22.0308 10.9902 22.1044 10.8688 22.1545C10.7475 22.2046 10.6175 22.2303 10.4862 22.23Z" fill="#818CF8"/>
<path d="M38.276 27V11.412H32.24V9.72H46.076V11.412H40.04V27H38.276ZM51.4904 27.36C50.2024 27.36 49.1024 27.068 48.1904 26.484C47.2784 25.9 46.5784 25.092 46.0904 24.06C45.6024 23.028 45.3584 21.844 45.3584 20.508C45.3584 19.148 45.6064 17.956 46.1024 16.932C46.5984 15.908 47.3024 15.112 48.2144 14.544C49.1344 13.968 50.2264 13.68 51.4904 13.68C52.7864 13.68 53.8904 13.972 54.8024 14.556C55.7224 15.132 56.4224 15.936 56.9024 16.968C57.3904 17.992 57.6344 19.172 57.6344 20.508C57.6344 21.868 57.3904 23.064 56.9024 24.096C56.4144 25.12 55.7104 25.92 54.7904 26.496C53.8704 27.072 52.7704 27.36 51.4904 27.36ZM51.4904 25.668C52.9304 25.668 54.0024 25.192 54.7064 24.24C55.4104 23.28 55.7624 22.036 55.7624 20.508C55.7624 18.94 55.4064 17.692 54.6944 16.764C53.9904 15.836 52.9224 15.372 51.4904 15.372C50.5224 15.372 49.7224 15.592 49.0904 16.032C48.4664 16.464 47.9984 17.068 47.6864 17.844C47.3824 18.612 47.2304 19.5 47.2304 20.508C47.2304 22.068 47.5904 23.32 48.3104 24.264C49.0304 25.2 50.0904 25.668 51.4904 25.668ZM60.2816 27V14.04H61.8656V17.16L61.5536 16.752C61.6976 16.368 61.8856 16.016 62.1176 15.696C62.3496 15.368 62.6016 15.1 62.8736 14.892C63.2096 14.596 63.6016 14.372 64.0496 14.22C64.4976 14.06 64.9496 13.968 65.4056 13.944C65.8616 13.912 66.2776 13.944 66.6536 14.04V15.696C66.1816 15.576 65.6656 15.548 65.1056 15.612C64.5456 15.676 64.0296 15.9 63.5576 16.284C63.1256 16.62 62.8016 17.024 62.5856 17.496C62.3696 17.96 62.2256 18.456 62.1536 18.984C62.0816 19.504 62.0456 20.02 62.0456 20.532V27H60.2816ZM75.986 27C75.258 27.152 74.538 27.212 73.826 27.18C73.122 27.148 72.49 26.996 71.93 26.724C71.378 26.452 70.958 26.028 70.67 25.452C70.438 24.972 70.31 24.488 70.286 24C70.27 23.504 70.262 22.94 70.262 22.308V10.44H72.014V22.236C72.014 22.78 72.018 23.236 72.026 23.604C72.042 23.964 72.126 24.284 72.278 24.564C72.566 25.1 73.022 25.42 73.646 25.524C74.278 25.628 75.058 25.604 75.986 25.452V27ZM67.49 15.552V14.04H75.986V15.552H67.49ZM83.4826 27.36C82.1946 27.36 81.0946 27.068 80.1826 26.484C79.2706 25.9 78.5706 25.092 78.0826 24.06C77.5946 23.028 77.3506 21.844 77.3506 20.508C77.3506 19.148 77.5986 17.956 78.0946 16.932C78.5906 15.908 79.2946 15.112 80.2066 14.544C81.1266 13.968 82.2186 13.68 83.4826 13.68C84.7786 13.68 85.8826 13.972 86.7946 14.556C87.7146 15.132 88.4146 15.936 88.8946 16.968C89.3826 17.992 89.6266 19.172 89.6266 20.508C89.6266 21.868 89.3826 23.064 88.8946 24.096C88.4066 25.12 87.7026 25.92 86.7826 26.496C85.8626 27.072 84.7626 27.36 83.4826 27.36ZM83.4826 25.668C84.9226 25.668 85.9946 25.192 86.6986 24.24C87.4026 23.28 87.7546 22.036 87.7546 20.508C87.7546 18.94 87.3986 17.692 86.6866 16.764C85.9826 15.836 84.9146 15.372 83.4826 15.372C82.5146 15.372 81.7146 15.592 81.0826 16.032C80.4586 16.464 79.9906 17.068 79.6786 17.844C79.3746 18.612 79.2226 19.5 79.2226 20.508C79.2226 22.068 79.5826 23.32 80.3026 24.264C81.0226 25.2 82.0826 25.668 83.4826 25.668ZM92.2738 27V14.04H93.8578V17.16L93.5458 16.752C93.6898 16.368 93.8778 16.016 94.1098 15.696C94.3418 15.368 94.5938 15.1 94.8658 14.892C95.2018 14.596 95.5938 14.372 96.0418 14.22C96.4898 14.06 96.9418 13.968 97.3978 13.944C97.8538 13.912 98.2698 13.944 98.6458 14.04V15.696C98.1738 15.576 97.6578 15.548 97.0978 15.612C96.5378 15.676 96.0218 15.9 95.5498 16.284C95.1178 16.62 94.7938 17.024 94.5778 17.496C94.3618 17.96 94.2178 18.456 94.1458 18.984C94.0738 19.504 94.0378 20.02 94.0378 20.532V27H92.2738ZM105.967 11.58V9.6H107.731V11.58H105.967ZM105.967 27V14.04H107.731V27H105.967ZM117.148 27.36C115.956 27.36 114.948 27.06 114.124 26.46C113.3 25.852 112.676 25.032 112.252 24C111.828 22.96 111.616 21.796 111.616 20.508C111.616 19.196 111.828 18.028 112.252 17.004C112.684 15.972 113.316 15.16 114.148 14.568C114.98 13.976 116.004 13.68 117.22 13.68C118.404 13.68 119.42 13.98 120.268 14.58C121.116 15.18 121.764 15.996 122.212 17.028C122.668 18.06 122.896 19.22 122.896 20.508C122.896 21.804 122.668 22.968 122.212 24C121.756 25.032 121.1 25.852 120.244 26.46C119.388 27.06 118.356 27.36 117.148 27.36ZM111.316 32.76V14.04H112.9V23.796H113.092V32.76H111.316ZM116.968 25.716C117.872 25.716 118.624 25.488 119.224 25.032C119.824 24.576 120.272 23.956 120.568 23.172C120.872 22.38 121.024 21.492 121.024 20.508C121.024 19.532 120.876 18.652 120.58 17.868C120.284 17.084 119.832 16.464 119.224 16.008C118.624 15.552 117.86 15.324 116.932 15.324C116.028 15.324 115.276 15.544 114.676 15.984C114.084 16.424 113.64 17.036 113.344 17.82C113.048 18.596 112.9 19.492 112.9 20.508C112.9 21.508 113.048 22.404 113.344 23.196C113.64 23.98 114.088 24.596 114.688 25.044C115.288 25.492 116.048 25.716 116.968 25.716ZM130.25 27.348C128.73 27.348 127.478 27.02 126.494 26.364C125.518 25.708 124.918 24.796 124.694 23.628L126.494 23.328C126.686 24.064 127.122 24.652 127.802 25.092C128.49 25.524 129.338 25.74 130.346 25.74C131.33 25.74 132.106 25.536 132.674 25.128C133.242 24.712 133.526 24.148 133.526 23.436C133.526 23.036 133.434 22.712 133.25 22.464C133.074 22.208 132.71 21.972 132.158 21.756C131.606 21.54 130.782 21.284 129.686 20.988C128.51 20.668 127.59 20.348 126.926 20.028C126.262 19.708 125.79 19.34 125.51 18.924C125.23 18.5 125.09 17.984 125.09 17.376C125.09 16.64 125.298 15.996 125.714 15.444C126.13 14.884 126.706 14.452 127.442 14.148C128.178 13.836 129.034 13.68 130.01 13.68C130.986 13.68 131.858 13.84 132.626 14.16C133.402 14.472 134.026 14.912 134.498 15.48C134.97 16.048 135.25 16.708 135.338 17.46L133.538 17.784C133.418 17.024 133.038 16.424 132.398 15.984C131.766 15.536 130.962 15.304 129.986 15.288C129.066 15.264 128.318 15.44 127.742 15.816C127.166 16.184 126.878 16.676 126.878 17.292C126.878 17.636 126.982 17.932 127.19 18.18C127.398 18.42 127.774 18.648 128.318 18.864C128.87 19.08 129.654 19.316 130.67 19.572C131.862 19.876 132.798 20.196 133.478 20.532C134.158 20.868 134.642 21.264 134.93 21.72C135.218 22.176 135.362 22.74 135.362 23.412C135.362 24.636 134.906 25.6 133.994 26.304C133.09 27 131.842 27.348 130.25 27.348ZM142.98 27.324C142.204 27.324 141.524 27.204 140.94 26.964C140.364 26.724 139.872 26.4 139.464 25.992C139.064 25.584 138.74 25.12 138.492 24.6C138.244 24.072 138.064 23.516 137.952 22.932C137.84 22.34 137.784 21.752 137.784 21.168V14.04H139.56V20.652C139.56 21.364 139.628 22.024 139.764 22.632C139.9 23.24 140.116 23.772 140.412 24.228C140.716 24.676 141.104 25.024 141.576 25.272C142.056 25.52 142.636 25.644 143.316 25.644C143.94 25.644 144.488 25.536 144.96 25.32C145.44 25.104 145.84 24.796 146.16 24.396C146.488 23.988 146.736 23.496 146.904 22.92C147.072 22.336 147.156 21.68 147.156 20.952L148.404 21.228C148.404 22.556 148.172 23.672 147.708 24.576C147.244 25.48 146.604 26.164 145.788 26.628C144.972 27.092 144.036 27.324 142.98 27.324ZM147.336 27V23.808H147.156V14.04H148.92V27H147.336ZM167.73 27L167.742 18.492C167.742 17.492 167.462 16.708 166.902 16.14C166.35 15.564 165.646 15.276 164.79 15.276C164.302 15.276 163.826 15.388 163.362 15.612C162.898 15.836 162.514 16.196 162.21 16.692C161.914 17.188 161.766 17.836 161.766 18.636L160.722 18.336C160.698 17.408 160.878 16.596 161.262 15.9C161.654 15.204 162.19 14.664 162.87 14.28C163.558 13.888 164.334 13.692 165.198 13.692C166.502 13.692 167.546 14.096 168.33 14.904C169.114 15.704 169.506 16.788 169.506 18.156L169.494 27H167.73ZM152.262 27V14.04H153.846V17.232H154.038V27H152.262ZM160.014 27L160.026 18.612C160.026 17.58 159.75 16.768 159.198 16.176C158.654 15.576 157.934 15.276 157.038 15.276C156.142 15.276 155.418 15.584 154.866 16.2C154.314 16.808 154.038 17.62 154.038 18.636L152.982 18.06C152.982 17.228 153.178 16.484 153.57 15.828C153.962 15.164 154.498 14.644 155.178 14.268C155.858 13.884 156.63 13.692 157.494 13.692C158.318 13.692 159.05 13.868 159.69 14.22C160.338 14.572 160.846 15.084 161.214 15.756C161.582 16.428 161.766 17.244 161.766 18.204L161.754 27H160.014ZM183.242 27.36C182.05 27.36 181.042 27.06 180.218 26.46C179.394 25.852 178.77 25.032 178.346 24C177.922 22.96 177.71 21.796 177.71 20.508C177.71 19.196 177.922 18.028 178.346 17.004C178.778 15.972 179.41 15.16 180.242 14.568C181.074 13.976 182.098 13.68 183.314 13.68C184.498 13.68 185.514 13.98 186.362 14.58C187.21 15.18 187.858 15.996 188.306 17.028C188.762 18.06 188.99 19.22 188.99 20.508C188.99 21.804 188.762 22.968 188.306 24C187.85 25.032 187.194 25.852 186.338 26.46C185.482 27.06 184.45 27.36 183.242 27.36ZM177.41 32.76V14.04H178.994V23.796H179.186V32.76H177.41ZM183.062 25.716C183.966 25.716 184.718 25.488 185.318 25.032C185.918 24.576 186.366 23.956 186.662 23.172C186.966 22.38 187.118 21.492 187.118 20.508C187.118 19.532 186.97 18.652 186.674 17.868C186.378 17.084 185.926 16.464 185.318 16.008C184.718 15.552 183.954 15.324 183.026 15.324C182.122 15.324 181.37 15.544 180.77 15.984C180.178 16.424 179.734 17.036 179.438 17.82C179.142 18.596 178.994 19.492 178.994 20.508C178.994 21.508 179.142 22.404 179.438 23.196C179.734 23.98 180.182 24.596 180.782 25.044C181.382 25.492 182.142 25.716 183.062 25.716ZM191.625 27V14.04H193.209V17.16L192.897 16.752C193.041 16.368 193.229 16.016 193.461 15.696C193.693 15.368 193.945 15.1 194.217 14.892C194.553 14.596 194.945 14.372 195.393 14.22C195.841 14.06 196.293 13.968 196.749 13.944C197.205 13.912 197.621 13.944 197.997 14.04V15.696C197.525 15.576 197.009 15.548 196.449 15.612C195.889 15.676 195.373 15.9 194.901 16.284C194.469 16.62 194.145 17.024 193.929 17.496C193.713 17.96 193.569 18.456 193.497 18.984C193.425 19.504 193.389 20.02 193.389 20.532V27H191.625ZM205.523 27.36C204.259 27.36 203.163 27.08 202.235 26.52C201.315 25.96 200.599 25.172 200.087 24.156C199.575 23.14 199.319 21.948 199.319 20.58C199.319 19.164 199.571 17.94 200.075 16.908C200.579 15.876 201.287 15.08 202.199 14.52C203.119 13.96 204.203 13.68 205.451 13.68C206.731 13.68 207.823 13.976 208.727 14.568C209.631 15.152 210.315 15.992 210.779 17.088C211.243 18.184 211.455 19.492 211.415 21.012H209.615V20.388C209.583 18.708 209.219 17.44 208.523 16.584C207.835 15.728 206.827 15.3 205.499 15.3C204.107 15.3 203.039 15.752 202.295 16.656C201.559 17.56 201.191 18.848 201.191 20.52C201.191 22.152 201.559 23.42 202.295 24.324C203.039 25.22 204.091 25.668 205.451 25.668C206.379 25.668 207.187 25.456 207.875 25.032C208.571 24.6 209.119 23.98 209.519 23.172L211.163 23.808C210.651 24.936 209.895 25.812 208.895 26.436C207.903 27.052 206.779 27.36 205.523 27.36ZM200.567 21.012V19.536H210.467V21.012H200.567ZM221.134 27C220.406 27.152 219.686 27.212 218.974 27.18C218.27 27.148 217.638 26.996 217.078 26.724C216.526 26.452 216.106 26.028 215.818 25.452C215.586 24.972 215.458 24.488 215.434 24C215.418 23.504 215.41 22.94 215.41 22.308V10.44H217.162V22.236C217.162 22.78 217.166 23.236 217.174 23.604C217.19 23.964 217.274 24.284 217.426 24.564C217.714 25.1 218.17 25.42 218.794 25.524C219.426 25.628 220.206 25.604 221.134 25.452V27ZM212.638 15.552V14.04H221.134V15.552H212.638ZM223.928 11.58V9.6H225.692V11.58H223.928ZM223.928 27V14.04H225.692V27H223.928ZM234.245 27.324C233.469 27.324 232.789 27.204 232.205 26.964C231.629 26.724 231.137 26.4 230.729 25.992C230.329 25.584 230.005 25.12 229.757 24.6C229.509 24.072 229.329 23.516 229.217 22.932C229.105 22.34 229.049 21.752 229.049 21.168V14.04H230.825V20.652C230.825 21.364 230.893 22.024 231.029 22.632C231.165 23.24 231.381 23.772 231.677 24.228C231.981 24.676 232.369 25.024 232.841 25.272C233.321 25.52 233.901 25.644 234.581 25.644C235.205 25.644 235.753 25.536 236.225 25.32C236.705 25.104 237.105 24.796 237.425 24.396C237.753 23.988 238.001 23.496 238.169 22.92C238.337 22.336 238.421 21.68 238.421 20.952L239.669 21.228C239.669 22.556 239.437 23.672 238.973 24.576C238.509 25.48 237.869 26.164 237.053 26.628C236.237 27.092 235.301 27.324 234.245 27.324ZM238.601 27V23.808H238.421V14.04H240.185V27H238.601ZM258.995 27L259.007 18.492C259.007 17.492 258.727 16.708 258.167 16.14C257.615 15.564 256.911 15.276 256.055 15.276C255.567 15.276 255.091 15.388 254.627 15.612C254.163 15.836 253.779 16.196 253.475 16.692C253.179 17.188 253.031 17.836 253.031 18.636L251.987 18.336C251.963 17.408 252.143 16.596 252.527 15.9C252.919 15.204 253.455 14.664 254.135 14.28C254.823 13.888 255.599 13.692 256.463 13.692C257.767 13.692 258.811 14.096 259.595 14.904C260.379 15.704 260.771 16.788 260.771 18.156L260.759 27H258.995ZM243.527 27V14.04H245.111V17.232H245.303V27H243.527ZM251.279 27L251.291 18.612C251.291 17.58 251.015 16.768 250.463 16.176C249.919 15.576 249.199 15.276 248.303 15.276C247.407 15.276 246.683 15.584 246.131 16.2C245.579 16.808 245.303 17.62 245.303 18.636L244.247 18.06C244.247 17.228 244.443 16.484 244.835 15.828C245.227 15.164 245.763 14.644 246.443 14.268C247.123 13.884 247.895 13.692 248.759 13.692C249.583 13.692 250.315 13.868 250.955 14.22C251.603 14.572 252.111 15.084 252.479 15.756C252.847 16.428 253.031 17.244 253.031 18.204L253.019 27H251.279ZM273.716 27.36C272.508 27.36 271.476 27.06 270.62 26.46C269.764 25.852 269.108 25.032 268.652 24C268.196 22.968 267.968 21.804 267.968 20.508C267.968 19.22 268.192 18.06 268.64 17.028C269.096 15.996 269.748 15.18 270.596 14.58C271.444 13.98 272.46 13.68 273.644 13.68C274.86 13.68 275.884 13.976 276.716 14.568C277.548 15.16 278.176 15.972 278.6 17.004C279.032 18.028 279.248 19.196 279.248 20.508C279.248 21.796 279.036 22.96 278.612 24C278.188 25.032 277.564 25.852 276.74 26.46C275.916 27.06 274.908 27.36 273.716 27.36ZM273.896 25.716C274.816 25.716 275.576 25.492 276.176 25.044C276.776 24.596 277.224 23.98 277.52 23.196C277.816 22.404 277.964 21.508 277.964 20.508C277.964 19.492 277.816 18.596 277.52 17.82C277.224 17.036 276.776 16.424 276.176 15.984C275.584 15.544 274.836 15.324 273.932 15.324C273.004 15.324 272.236 15.552 271.628 16.008C271.02 16.464 270.568 17.084 270.272 17.868C269.984 18.652 269.84 19.532 269.84 20.508C269.84 21.492 269.988 22.38 270.284 23.172C270.588 23.956 271.04 24.576 271.64 25.032C272.24 25.488 272.992 25.716 273.896 25.716ZM277.772 32.76V23.796H277.964V14.04H279.548V32.76H277.772ZM287.87 27.324C287.094 27.324 286.414 27.204 285.83 26.964C285.254 26.724 284.762 26.4 284.354 25.992C283.954 25.584 283.63 25.12 283.382 24.6C283.134 24.072 282.954 23.516 282.842 22.932C282.73 22.34 282.674 21.752 282.674 21.168V14.04H284.45V20.652C284.45 21.364 284.518 22.024 284.654 22.632C284.79 23.24 285.006 23.772 285.302 24.228C285.606 24.676 285.994 25.024 286.466 25.272C286.946 25.52 287.526 25.644 288.206 25.644C288.83 25.644 289.378 25.536 289.85 25.32C290.33 25.104 290.73 24.796 291.05 24.396C291.378 23.988 291.626 23.496 291.794 22.92C291.962 22.336 292.046 21.68 292.046 20.952L293.294 21.228C293.294 22.556 293.062 23.672 292.598 24.576C292.134 25.48 291.494 26.164 290.678 26.628C289.862 27.092 288.926 27.324 287.87 27.324ZM292.226 27V23.808H292.046V14.04H293.81V27H292.226ZM297.404 11.58V9.6H299.168V11.58H297.404ZM297.404 27V14.04H299.168V27H297.404ZM307.602 27.348C306.082 27.348 304.83 27.02 303.846 26.364C302.87 25.708 302.27 24.796 302.046 23.628L303.846 23.328C304.038 24.064 304.474 24.652 305.154 25.092C305.842 25.524 306.69 25.74 307.698 25.74C308.682 25.74 309.458 25.536 310.026 25.128C310.594 24.712 310.878 24.148 310.878 23.436C310.878 23.036 310.786 22.712 310.602 22.464C310.426 22.208 310.062 21.972 309.51 21.756C308.958 21.54 308.134 21.284 307.038 20.988C305.862 20.668 304.942 20.348 304.278 20.028C303.614 19.708 303.142 19.34 302.862 18.924C302.582 18.5 302.442 17.984 302.442 17.376C302.442 16.64 302.65 15.996 303.066 15.444C303.482 14.884 304.058 14.452 304.794 14.148C305.53 13.836 306.386 13.68 307.362 13.68C308.338 13.68 309.21 13.84 309.978 14.16C310.754 14.472 311.378 14.912 311.85 15.48C312.322 16.048 312.602 16.708 312.69 17.46L310.89 17.784C310.77 17.024 310.39 16.424 309.75 15.984C309.118 15.536 308.314 15.304 307.338 15.288C306.418 15.264 305.67 15.44 305.094 15.816C304.518 16.184 304.23 16.676 304.23 17.292C304.23 17.636 304.334 17.932 304.542 18.18C304.75 18.42 305.126 18.648 305.67 18.864C306.222 19.08 307.006 19.316 308.022 19.572C309.214 19.876 310.15 20.196 310.83 20.532C311.51 20.868 311.994 21.264 312.282 21.72C312.57 22.176 312.714 22.74 312.714 23.412C312.714 24.636 312.258 25.6 311.346 26.304C310.442 27 309.194 27.348 307.602 27.348ZM329.54 27V20.388C329.54 19.668 329.472 19.008 329.336 18.408C329.2 17.8 328.98 17.272 328.676 16.824C328.38 16.368 327.992 16.016 327.512 15.768C327.04 15.52 326.464 15.396 325.784 15.396C325.16 15.396 324.608 15.504 324.128 15.72C323.656 15.936 323.256 16.248 322.928 16.656C322.608 17.056 322.364 17.544 322.196 18.12C322.028 18.696 321.944 19.352 321.944 20.088L320.696 19.812C320.696 18.484 320.928 17.368 321.392 16.464C321.856 15.56 322.496 14.876 323.312 14.412C324.128 13.948 325.064 13.716 326.12 13.716C326.896 13.716 327.572 13.836 328.148 14.076C328.732 14.316 329.224 14.64 329.624 15.048C330.032 15.456 330.36 15.924 330.608 16.452C330.856 16.972 331.036 17.528 331.148 18.12C331.26 18.704 331.316 19.288 331.316 19.872V27H329.54ZM320.168 27V14.04H321.764V17.232H321.944V27H320.168ZM339.386 27.324C338.61 27.324 337.93 27.204 337.346 26.964C336.77 26.724 336.278 26.4 335.87 25.992C335.47 25.584 335.146 25.12 334.898 24.6C334.65 24.072 334.47 23.516 334.358 22.932C334.246 22.34 334.19 21.752 334.19 21.168V14.04H335.966V20.652C335.966 21.364 336.034 22.024 336.17 22.632C336.306 23.24 336.522 23.772 336.818 24.228C337.122 24.676 337.51 25.024 337.982 25.272C338.462 25.52 339.042 25.644 339.722 25.644C340.346 25.644 340.894 25.536 341.366 25.32C341.846 25.104 342.246 24.796 342.566 24.396C342.894 23.988 343.142 23.496 343.31 22.92C343.478 22.336 343.562 21.68 343.562 20.952L344.81 21.228C344.81 22.556 344.578 23.672 344.114 24.576C343.65 25.48 343.01 26.164 342.194 26.628C341.378 27.092 340.442 27.324 339.386 27.324ZM343.742 27V23.808H343.562V14.04H345.326V27H343.742ZM358.04 27V20.388C358.04 19.668 357.972 19.008 357.836 18.408C357.7 17.8 357.48 17.272 357.176 16.824C356.88 16.368 356.492 16.016 356.012 15.768C355.54 15.52 354.964 15.396 354.284 15.396C353.66 15.396 353.108 15.504 352.628 15.72C352.156 15.936 351.756 16.248 351.428 16.656C351.108 17.056 350.864 17.544 350.696 18.12C350.528 18.696 350.444 19.352 350.444 20.088L349.196 19.812C349.196 18.484 349.428 17.368 349.892 16.464C350.356 15.56 350.996 14.876 351.812 14.412C352.628 13.948 353.564 13.716 354.62 13.716C355.396 13.716 356.072 13.836 356.648 14.076C357.232 14.316 357.724 14.64 358.124 15.048C358.532 15.456 358.86 15.924 359.108 16.452C359.356 16.972 359.536 17.528 359.648 18.12C359.76 18.704 359.816 19.288 359.816 19.872V27H358.04ZM348.668 27V14.04H350.264V17.232H350.444V27H348.668ZM368.236 27.36C366.932 27.36 365.828 27.068 364.924 26.484C364.02 25.9 363.332 25.096 362.86 24.072C362.396 23.04 362.156 21.856 362.14 20.52C362.156 19.16 362.404 17.968 362.884 16.944C363.364 15.912 364.056 15.112 364.96 14.544C365.864 13.968 366.96 13.68 368.248 13.68C369.56 13.68 370.7 14 371.668 14.64C372.644 15.28 373.312 16.156 373.672 17.268L371.944 17.82C371.64 17.044 371.156 16.444 370.492 16.02C369.836 15.588 369.084 15.372 368.236 15.372C367.284 15.372 366.496 15.592 365.872 16.032C365.248 16.464 364.784 17.068 364.48 17.844C364.176 18.62 364.02 19.512 364.012 20.52C364.028 22.072 364.388 23.32 365.092 24.264C365.796 25.2 366.844 25.668 368.236 25.668C369.116 25.668 369.864 25.468 370.48 25.068C371.104 24.66 371.576 24.068 371.896 23.292L373.672 23.82C373.192 24.972 372.488 25.852 371.56 26.46C370.632 27.06 369.524 27.36 368.236 27.36ZM376.016 27V24.948H378.068V27H376.016Z" fill="#1C2221"/>
</svg>
