<svg width="66" height="60" viewBox="0 0 66 60" fill="none" xmlns="http://www.w3.org/2000/svg">
<path fill-rule="evenodd" clip-rule="evenodd" d="M15.5101 2.51326C10.4644 5.26058 9.99464 5.59342 9.7153 6.6198C9.50745 7.38374 9.64559 10.0463 9.97187 11.5661C10.7716 15.2913 12.8968 19.4361 15.4329 22.2166L16.0978 22.9457L15.7791 24.3887C15.0226 27.8151 15.0041 31.082 15.7216 34.4562C15.8636 35.1238 15.9886 35.7154 15.9993 35.7707C16.0101 35.8262 15.5299 36.0581 14.9322 36.2863C14.3345 36.5144 13.6619 36.8324 13.4377 36.9927L13.0299 37.2844L12.8943 36.9263C12.4058 35.6358 11.6868 34.8187 10.5437 34.255L9.7859 33.8813H6.733H3.6801L2.94512 34.2551C2.07771 34.6963 1.16477 35.6303 0.777178 36.4728C0.500127 37.0753 0.5 37.0805 0.5 46.7222V56.3689L0.85261 57.0899C1.28205 57.968 2.11994 58.7686 3.08542 59.2233C3.80145 59.5604 3.83097 59.5631 6.733 59.5631C9.63503 59.5631 9.66454 59.5604 10.3806 59.2233C11.8097 58.5503 12.8331 57.2497 12.9917 55.9052C13.0377 55.5143 13.1207 55.2923 13.207 55.3282C13.2844 55.3604 15.15 56.201 17.3528 57.196C19.5555 58.1912 21.7594 59.1138 22.2501 59.2461C23.6056 59.6117 24.8986 59.7526 28.1033 59.8841C31.8802 60.0389 46.2713 60.0386 47.4595 59.8834C48.5613 59.7397 49.6387 59.374 50.3701 58.8956C50.8659 58.5714 62.8441 47.5477 64.153 46.2111C64.4627 45.8949 64.8925 45.2624 65.108 44.8056C65.4556 44.0693 65.5 43.8448 65.5 42.8252C65.5 41.7965 65.457 41.584 65.0924 40.8096C64.3877 39.313 63.056 38.2817 61.3353 37.8999C60.9331 37.8106 60.6039 37.7281 60.6039 37.7164C60.6039 37.7048 60.7491 37.2683 60.9264 36.7465C61.5891 34.7965 61.8924 32.9161 61.9661 30.3008C62.0584 27.0337 61.8015 25.0957 60.8998 22.2542C59.993 19.3961 57.8667 15.5913 56.965 15.2129C56.0973 14.8487 55.2613 15.4154 55.2613 16.3678C55.2613 16.7034 55.4693 17.1339 56.0948 18.0928C57.5173 20.2736 58.5204 22.7189 59.0992 25.4166C59.3372 26.5258 59.3811 27.1367 59.3858 29.4093C59.3923 32.4529 59.2377 33.5652 58.4804 35.925C57.9046 37.7185 57.5354 38.4478 57.014 38.8205C56.7846 38.9843 54.6221 40.9531 52.2085 43.1954C49.7948 45.4377 47.6196 47.3641 47.3747 47.4764C46.9844 47.6553 45.9084 47.6853 38.6612 47.7198C33.0215 47.7467 30.2443 47.7155 29.9254 47.6217C28.5879 47.2284 28.397 45.5021 29.6168 44.8311C29.9631 44.6406 30.6259 44.6062 35.0391 44.5501L40.0668 44.4862L40.9061 44.071C42.4408 43.3116 43.4263 41.8548 43.5046 40.2295C43.5431 39.433 43.567 39.3766 43.9701 39.1271C44.8459 38.5855 45.3523 38.1106 45.8462 37.3677C47.9946 34.1362 46.5898 29.8792 42.936 28.5481C42.3076 28.3192 41.7999 28.2789 38.6612 28.2093C34.6665 28.1205 34.7151 28.1312 33.8058 27.1405C32.3677 25.5731 32.7811 23.1744 34.6708 22.1231L35.3539 21.7431L40.8031 21.6792L46.2522 21.6153L46.5591 21.2568C46.9918 20.7512 46.9679 20.137 46.495 19.605L46.1239 19.1877L42.9968 19.1493L39.8697 19.1111V17.3188V15.5265L39.4978 15.1531C39.0787 14.7321 38.5503 14.6655 37.98 14.9617C37.4308 15.247 37.3256 15.65 37.3256 17.4688V19.1238H36.5797C33.418 19.1238 30.9256 21.1593 30.4333 24.1436C29.9205 27.2517 32.2573 30.3341 35.4408 30.7494C35.9527 30.8162 37.6053 30.8725 39.1133 30.8747C41.8044 30.8785 41.8671 30.8848 42.5161 31.2096C44.3761 32.1405 44.8856 34.5237 43.5681 36.1291C43.3673 36.3738 43.0045 36.6814 42.7619 36.8126L42.3208 37.0513L41.8266 36.654C41.5549 36.4354 41.0463 36.1247 40.6965 35.9634L40.0605 35.6701L29.3477 35.6353L18.6348 35.6006L18.5078 35.1242C17.711 32.1367 17.5595 29.0088 18.0668 26.0203C18.1797 25.3544 18.282 24.7985 18.2938 24.7848C18.3058 24.7711 18.7072 24.958 19.186 25.2C20.3582 25.7926 20.8864 25.7855 22.0512 25.1609C24.8189 23.677 27.4496 20.6188 29.3762 16.6454C30.3302 14.6778 30.8511 13.1541 31.2123 11.2747C31.3563 10.5248 31.4742 9.8874 31.4742 9.85802C31.4742 9.82876 31.9545 9.65754 32.5417 9.47777C36.8449 8.15931 41.5738 8.29679 45.7846 9.86262C47.776 10.6032 48.2142 10.6073 48.6502 9.88894C49.1512 9.06354 48.8286 8.31838 47.7688 7.85304C43.1929 5.84347 37.1312 5.44457 32.3551 6.83842L31.5187 7.08259L31.3629 6.49714C31.2601 6.11115 31.0428 5.7571 30.7256 5.45837C30.0975 4.86692 21.2561 0.0750212 20.6618 0.00385307C20.2767 -0.0421443 19.5818 0.29632 15.5101 2.51326ZM24.7176 4.95138C26.9296 6.15165 28.7917 7.18455 28.8558 7.2469C29.0282 7.41466 28.9489 9.58267 28.73 10.688C28.2388 13.1678 27.0123 16.0427 25.432 18.4186C24.5021 19.8168 22.542 21.8486 21.4363 22.5607L20.6205 23.086L20.001 22.7339C18.016 21.6061 15.6497 18.7474 14.1139 15.6214C12.9289 13.2096 12.3128 10.9695 12.1768 8.57776L12.1039 7.2952L16.2874 5.03277C18.5884 3.78841 20.5217 2.77008 20.5835 2.76983C20.6454 2.76944 22.5058 3.75123 24.7176 4.95138ZM21.9862 10.6865L19.993 12.7263L19.2144 12.0251C18.7861 11.6395 18.307 11.2903 18.1496 11.2492C17.3829 11.0487 16.5913 11.6621 16.5913 12.4567C16.5913 13.076 16.7704 13.3105 18.313 14.71C19.4258 15.7195 19.5573 15.8018 20.057 15.8018C20.5921 15.8018 20.621 15.7772 23.1073 13.2144C24.7204 11.5517 25.6554 10.4901 25.7235 10.2438C25.9674 9.36367 25.4312 8.64662 24.5294 8.64662C23.987 8.64662 23.9515 8.67512 21.9862 10.6865ZM51.6898 11.32C50.9241 12.0891 51.3386 13.3155 52.4132 13.4602C52.8663 13.5213 52.9924 13.4797 53.3641 13.1461C53.722 12.8248 53.7928 12.6729 53.7928 12.2242C53.7928 11.7796 53.7215 11.6232 53.3801 11.3168C52.8155 10.8099 52.1965 10.8111 51.6898 11.32ZM9.46534 36.5967C9.70881 36.7194 10.038 37.0154 10.1968 37.2542L10.4855 37.6883L10.485 46.7092C10.4846 55.5387 10.4792 55.739 10.2273 56.1539C10.0694 56.414 9.74634 56.6773 9.39131 56.835C8.86876 57.0671 8.59539 57.088 6.56445 57.0499C4.12137 57.004 3.84687 56.9325 3.29849 56.1984C3.05044 55.8663 3.04319 55.6316 3.01037 46.85C2.97832 38.2618 2.98786 37.8213 3.21453 37.395C3.34517 37.149 3.67514 36.8194 3.94774 36.6623C4.40987 36.3963 4.59813 36.3769 6.733 36.3751C8.66179 36.3734 9.09238 36.4084 9.46534 36.5967ZM39.8798 38.4585C41.2059 39.1629 41.2866 40.8473 40.0317 41.6309C39.5542 41.9293 39.5251 41.9312 34.5271 41.9947L29.5025 42.0586L28.7095 42.4266C27.1607 43.145 26.2227 44.5423 26.2119 46.1472C26.2011 47.7482 27.1351 49.1809 28.6569 49.8975L29.3753 50.2359L37.9214 50.2713C47.2924 50.3101 47.6748 50.2856 48.9048 49.5688C49.24 49.3734 51.5269 47.3451 53.9869 45.0612C56.4469 42.7773 58.6415 40.8113 58.8639 40.6922C59.8444 40.1672 61.215 40.3006 62.064 41.0036C62.586 41.4358 63.0135 42.2366 63.018 42.7907C63.0259 43.7675 62.8769 43.9267 55.8778 50.4229C51.704 54.2969 48.938 56.7713 48.595 56.9381C47.7006 57.373 46.2729 57.4531 39.488 57.4497C28.5279 57.444 23.9971 57.2164 22.3631 56.589C22.022 56.4582 19.7826 55.4674 17.3863 54.3874L13.0296 52.4237V46.5193V40.6149L13.71 39.9902C14.0842 39.6467 14.7626 39.1816 15.2175 38.9566C16.8185 38.1649 16.4993 38.1839 28.4331 38.1722L39.3208 38.1616L39.8798 38.4585Z" fill="#54D4BD"/>
</svg>
