<svg width="165" height="164" viewBox="0 0 165 164" fill="none" xmlns="http://www.w3.org/2000/svg">
<circle opacity="0.65" cx="82.378" cy="81.753" r="81.753" fill="#54D4BD"/>
<circle cx="82.3789" cy="81.7529" r="68.7304" fill="#54D4BD"/>
<path d="M99.9195 78.7684C101.159 79.5642 101.913 80.966 101.913 82.4762C101.913 83.9865 101.159 85.3882 99.9195 86.1027L74.9621 102.019C73.6777 102.914 72.07 102.951 70.7579 102.182C70.113 101.804 69.5762 101.254 69.2027 100.588C68.8292 99.9222 68.6325 99.1644 68.6328 98.3927V66.5597C68.6329 65.7885 68.8298 65.0312 69.2033 64.3658C69.5768 63.7003 70.1134 63.1506 70.7579 62.7732C71.4025 62.3962 72.1318 62.2051 72.8707 62.2195C73.6096 62.234 74.3314 62.4535 74.9621 62.8555L99.9195 78.7684Z" fill="white"/>
</svg>
