<svg width="16" height="25" viewBox="0 0 16 25" fill="none" xmlns="http://www.w3.org/2000/svg">
<path d="M7.86441 17.4215C6.34632 17.4215 5.06239 17.0396 4.01289 16.2752C2.96339 15.5009 2.16868 14.4564 1.62873 13.1421C1.08853 11.8174 0.818683 10.335 0.818683 8.69458C0.818683 7.02347 1.08853 5.53586 1.62873 4.23164C2.17898 2.91724 2.98375 1.88305 4.04355 1.12903C5.1031 0.375031 6.40737 -0.00195312 7.95612 -0.00195312C9.46416 -0.00195312 10.7581 0.380133 11.8383 1.14433C12.9182 1.9085 13.7436 2.94782 14.3142 4.26222C14.8951 5.57661 15.1855 7.05413 15.1855 8.69458C15.1855 10.3451 14.8951 11.8277 14.3142 13.1421C13.7335 14.4564 12.8978 15.5009 11.8076 16.2752C10.7174 17.0396 9.4031 17.4215 7.86441 17.4215ZM0.436523 24.2994V0.456539H2.4541V12.8823H2.69858V24.2994H0.436523ZM7.63527 15.3277C8.78652 15.3277 9.74431 15.0373 10.5086 14.4564C11.2727 13.8757 11.8433 13.086 12.2204 12.0875C12.6076 11.0787 12.8011 9.94785 12.8011 8.69458C12.8011 7.45136 12.6126 6.33051 12.2355 5.33209C11.8586 4.33355 11.283 3.54387 10.5086 2.9631C9.74431 2.38232 8.77119 2.09192 7.58928 2.09192C6.43802 2.09192 5.48024 2.37212 4.71592 2.93252C3.9619 3.49292 3.39657 4.27239 3.01943 5.27094C2.64255 6.2594 2.4541 7.40061 2.4541 8.69458C2.4541 9.9682 2.64255 11.1094 3.01943 12.1182C3.39657 13.1167 3.96717 13.9011 4.73124 14.4717C5.49556 15.0423 6.46341 15.3277 7.63527 15.3277Z" fill="#63778A"/>
</svg>
