<svg width="22" height="24" viewBox="0 0 22 24" fill="none" xmlns="http://www.w3.org/2000/svg">
<path d="M11.507 23.4215C9.30596 23.4215 7.4057 22.9426 5.80596 21.9848C4.21651 21.027 2.98862 19.6873 2.12254 17.9652C1.26676 16.2433 0.838867 14.241 0.838867 11.9587C0.838867 9.67633 1.26676 7.67414 2.12254 5.95218C2.98862 4.2302 4.21651 2.89032 5.80596 1.93253C7.4057 0.974744 9.30596 0.49585 11.507 0.49585C14.0338 0.49585 16.1532 1.12248 17.865 2.37577C19.5869 3.62904 20.7994 5.32555 21.5024 7.46527L17.3147 8.62683C16.9072 7.29206 16.2193 6.25786 15.2514 5.52422C14.2833 4.78042 13.0354 4.40851 11.507 4.40851C10.111 4.40851 8.94439 4.71929 8.00696 5.34082C7.07957 5.96236 6.38158 6.83864 5.91299 7.96964C5.4444 9.10065 5.20997 10.4303 5.20997 11.9587C5.20997 13.487 5.4444 14.8167 5.91299 15.9478C6.38158 17.0787 7.07957 17.9551 8.00696 18.5765C8.94439 19.1981 10.111 19.5089 11.507 19.5089C13.0354 19.5089 14.2833 19.137 15.2514 18.3931C16.2193 17.6493 16.9072 16.6152 17.3147 15.2905L21.5024 16.4521C20.7994 18.5918 19.5869 20.2883 17.865 21.5416C16.1532 22.7948 14.0338 23.4215 11.507 23.4215Z" fill="#63778A"/>
</svg>
