<svg width="17" height="24" viewBox="0 0 17 24" fill="none" xmlns="http://www.w3.org/2000/svg">
<path d="M8.20458 23.4214C6.68649 23.4214 5.35683 23.0395 4.21562 22.2752C3.07442 21.5111 2.18297 20.4717 1.54101 19.1574C0.909099 17.843 0.593262 16.3604 0.593262 14.7099C0.593262 13.0285 0.914369 11.5358 1.55633 10.2316C2.20834 8.91721 3.12015 7.88301 4.29201 7.12899C5.46387 6.375 6.83925 5.99801 8.41864 5.99801C9.98774 5.99801 11.3073 6.3801 12.3772 7.1443C13.447 7.90847 14.2571 8.94779 14.8073 10.2622C15.3576 11.5766 15.6325 13.0591 15.6325 14.7099C15.6325 16.3604 15.3523 17.843 14.792 19.1574C14.2418 20.4717 13.4164 21.5111 12.3159 22.2752C11.2156 23.0395 9.84503 23.4214 8.20458 23.4214ZM8.87719 19.7229C9.80433 19.7229 10.543 19.5139 11.0933 19.0963C11.6538 18.6785 12.0561 18.0925 12.3008 17.3385C12.5453 16.5845 12.6676 15.7084 12.6676 14.7099C12.6676 13.7111 12.5453 12.835 12.3008 12.081C12.0561 11.327 11.6639 10.7411 11.1239 10.3233C10.594 9.90555 9.89603 9.69668 9.02995 9.69668C8.10281 9.69668 7.3385 9.92593 6.73749 10.3844C6.14654 10.8328 5.70833 11.439 5.42291 12.2033C5.13773 12.9571 4.99503 13.7928 4.99503 14.7099C4.99503 15.637 5.13271 16.4827 5.40783 17.2468C5.68271 18.0008 6.10558 18.6021 6.67618 19.0503C7.24679 19.4988 7.98046 19.7229 8.87719 19.7229ZM12.6676 22.9631V11.653H12.1478V0.954346H16.3357V22.9631H12.6676Z" fill="#63778A"/>
</svg>
