<svg width="17" height="18" viewBox="0 0 17 18" fill="none" xmlns="http://www.w3.org/2000/svg">
<path d="M8.34058 17.4215C6.67977 17.4215 5.22274 17.0496 3.96948 16.3059C2.71621 15.5619 1.73806 14.538 1.0348 13.2338C0.342084 11.9195 -0.00439453 10.4114 -0.00439453 8.70991C-0.00439453 6.9878 0.352137 5.47473 1.06545 4.17051C1.77877 2.85611 2.76193 1.83209 4.0152 1.09847C5.26847 0.364856 6.71017 -0.00195312 8.34058 -0.00195312C10.0014 -0.00195312 11.4584 0.369931 12.7117 1.11375C13.9752 1.85757 14.9584 2.88666 15.6614 4.20109C16.3645 5.50531 16.716 7.00815 16.716 8.70991C16.716 10.4215 16.3594 11.9348 15.6461 13.2491C14.9431 14.5534 13.9599 15.5772 12.6964 16.3212C11.4431 17.0549 9.99108 17.4215 8.34058 17.4215ZM8.34058 13.5396C9.67525 13.5396 10.6687 13.0911 11.321 12.1946C11.9833 11.2878 12.3144 10.126 12.3144 8.70991C12.3144 7.24257 11.978 6.07081 11.3057 5.19453C10.6433 4.31825 9.6549 3.88013 8.34058 3.88013C7.43379 3.88013 6.68983 4.0839 6.10917 4.49146C5.52827 4.89905 5.09535 5.46455 4.80992 6.18805C4.5348 6.91141 4.39736 7.75212 4.39736 8.70991C4.39736 10.1873 4.72852 11.3642 5.39083 12.2403C6.06319 13.1064 7.04661 13.5396 8.34058 13.5396Z" fill="#63778A"/>
</svg>
