<svg width="15" height="17" viewBox="0 0 15 17" fill="none" xmlns="http://www.w3.org/2000/svg">
<path d="M12.6887 16.963V8.54136C12.6887 7.62453 12.6007 6.78383 12.4273 6.01966C12.254 5.24528 11.9751 4.5728 11.5882 4.0022C11.2113 3.42142 10.7163 2.97307 10.1057 2.65722C9.50272 2.34137 8.76905 2.18343 7.90472 2.18343C7.10824 2.18343 6.40472 2.32096 5.79417 2.59609C5.19366 2.87119 4.68362 3.26858 4.26654 3.78823C3.8595 4.29767 3.54792 4.91923 3.33436 5.65285C3.12079 6.38634 3.01277 7.22202 3.01277 8.15946L1.4223 7.80795C1.4223 6.11644 1.71879 4.69506 2.30924 3.54368C2.89969 2.39229 3.71627 1.52111 4.75648 0.93016C5.79416 0.33918 6.98763 0.0437012 8.33185 0.0437012C9.31928 0.0437012 10.1811 0.196517 10.9148 0.502195C11.6585 0.807874 12.2841 1.22054 12.7942 1.74019C13.3143 2.25983 13.7313 2.85591 14.0479 3.5284C14.3645 4.19069 14.5932 4.89885 14.7364 5.65285C14.8771 6.39664 14.95 7.14036 14.95 7.88433V16.963H12.6887ZM0.751465 16.963V0.45634H2.78412V4.52184H3.01277V16.963H0.751465Z" fill="#63778A"/>
</svg>
