<svg width="23" height="17" viewBox="0 0 23 17" fill="none" xmlns="http://www.w3.org/2000/svg">
<path d="M20.2274 16.963L20.2427 6.1266C20.2427 4.85306 19.8859 3.85452 19.1726 3.13107C18.4696 2.39746 17.5731 2.03065 16.4829 2.03065C15.8613 2.03065 15.255 2.17328 14.6641 2.45858C14.0731 2.74389 13.5839 3.2024 13.1967 3.83414C12.8198 4.46587 12.6311 5.2912 12.6311 6.31002L11.3015 5.92801C11.2711 4.74607 11.5002 3.71185 11.9894 2.82539C12.4887 1.93894 13.1714 1.25117 14.0374 0.762078C14.9136 0.262806 15.902 0.0131836 17.0025 0.0131836C18.6633 0.0131836 19.993 0.527731 20.9915 1.55685C21.9899 2.57577 22.4902 3.9564 22.4902 5.69876L22.4751 16.963H20.2274ZM0.526367 16.963V0.4564H2.54396V4.5219H2.78844V16.963H0.526367ZM10.3997 16.963L10.4151 6.27962C10.4151 4.96514 10.0636 3.93092 9.36055 3.17693C8.66758 2.41273 7.75074 2.03065 6.60953 2.03065C5.46833 2.03065 4.54622 2.42293 3.84295 3.20751C3.13994 3.98188 2.78844 5.01607 2.78844 6.31002L1.44346 5.57648C1.44346 4.5168 1.69321 3.56921 2.19246 2.73369C2.6917 1.88798 3.37437 1.2257 4.24045 0.746802C5.10653 0.257731 6.08969 0.0131836 7.1902 0.0131836C8.23969 0.0131836 9.17211 0.237354 9.98718 0.685671C10.8126 1.13399 11.4595 1.7861 11.9281 2.642C12.397 3.49788 12.6311 4.53718 12.6311 5.75989L12.6161 16.963H10.3997Z" fill="#63778A"/>
</svg>
