<svg width="17" height="18" viewBox="0 0 17 18" fill="none" xmlns="http://www.w3.org/2000/svg">
<path d="M7.22123 17.4521C5.92701 17.4521 4.87248 17.233 4.05741 16.7948C3.24233 16.3569 2.6054 15.8014 2.14686 15.129C1.69862 14.4564 1.37777 13.7587 1.18405 13.035C0.990579 12.3016 0.873238 11.634 0.832535 11.033C0.791831 10.4318 0.771484 9.99358 0.771484 9.71845V0.456543H4.98983V8.25137C4.98983 8.62825 5.01017 9.11217 5.05088 9.70338C5.09158 10.284 5.21897 10.87 5.43304 11.4609C5.64686 12.0519 5.99334 12.5461 6.47224 12.9433C6.96143 13.3408 7.64912 13.5396 8.53556 13.5396C8.89209 13.5396 9.27424 13.4835 9.68178 13.3715C10.0893 13.2594 10.4715 13.0453 10.828 12.7295C11.1848 12.4034 11.4752 11.9295 11.6994 11.3082C11.9335 10.6762 12.0509 9.85112 12.0509 8.83202L14.435 9.96318C14.435 11.2672 14.1702 12.4901 13.6403 13.6313C13.1104 14.7725 12.3107 15.6946 11.2408 16.3976C10.181 17.1006 8.84133 17.4521 7.22123 17.4521ZM12.5705 16.9632V11.4916H12.0509V0.456543H16.2386V16.9632H12.5705Z" fill="#63778A"/>
</svg>
