<svg width="16" height="18" viewBox="0 0 16 18" fill="none" xmlns="http://www.w3.org/2000/svg">
<path d="M8.31649 17.4215C6.70845 17.4215 5.31146 17.0649 4.13055 16.3516C2.95719 15.6385 2.04512 14.6348 1.39437 13.3408C0.741101 12.0468 0.416992 10.5285 0.416992 8.78629C0.416992 6.98277 0.736077 5.42377 1.37929 4.10938C2.02 2.79498 2.92202 1.78114 4.08283 1.06789C5.2562 0.354654 6.63559 -0.00195312 8.22604 -0.00195312C9.8567 -0.00195312 11.2461 0.375031 12.3994 1.12903C13.5502 1.87284 14.422 2.94272 15.0125 4.33862C15.6029 5.73455 15.8718 7.40061 15.8215 9.33654H13.5301V8.54156C13.4873 6.40186 13.025 4.78696 12.1381 3.69671C11.2612 2.60646 9.9773 2.06134 8.28634 2.06134C6.51498 2.06134 5.15318 2.63704 4.20594 3.78842C3.26876 4.93981 2.7989 6.58026 2.7989 8.70991C2.7989 10.7883 3.26876 12.4034 4.20594 13.5549C5.15318 14.6958 6.49489 15.2664 8.22604 15.2664C9.40695 15.2664 10.4371 14.9966 11.314 14.4564C12.1984 13.9064 12.8969 13.1167 13.4069 12.0875L15.4999 12.8976C14.8491 14.3343 13.8868 15.4499 12.613 16.2448C11.3491 17.0293 9.91699 17.4215 8.31649 17.4215ZM2.00493 9.33654V7.45664H14.6155V9.33654H2.00493Z" fill="#63778A"/>
</svg>
