<svg width="15" height="25" viewBox="0 0 15 25" fill="none" xmlns="http://www.w3.org/2000/svg">
<path d="M7.45219 17.4215C5.91375 17.4215 4.59919 17.0396 3.50898 16.2752C2.41878 15.5009 1.58335 14.4564 1.00245 13.1421C0.421795 11.8277 0.131348 10.3451 0.131348 8.69458C0.131348 7.05413 0.416525 5.57661 0.987128 4.26222C1.56803 2.94782 2.39843 1.9085 3.47833 1.14433C4.55848 0.380133 5.85245 -0.00195312 7.36049 -0.00195312C8.90923 -0.00195312 10.2135 0.375031 11.2733 1.12903C12.3328 1.88305 13.1326 2.91724 13.6728 4.23164C14.2231 5.53586 14.4982 7.02347 14.4982 8.69458C14.4982 10.335 14.2281 11.8174 13.6881 13.1421C13.1479 14.4564 12.3532 15.5009 11.3037 16.2752C10.2542 17.0396 8.97053 17.4215 7.45219 17.4215ZM7.6816 15.3277C8.8532 15.3277 9.8213 15.0423 10.5854 14.4717C11.3497 13.9011 11.9203 13.1167 12.2972 12.1182C12.6743 11.1094 12.8628 9.9682 12.8628 8.69458C12.8628 7.40061 12.6743 6.2594 12.2972 5.27094C11.9203 4.27239 11.3497 3.49292 10.5854 2.93252C9.83135 2.37212 8.87883 2.09192 7.72733 2.09192C6.54542 2.09192 5.56727 2.38232 4.7929 2.9631C4.01853 3.54387 3.44266 4.33355 3.06577 5.33209C2.69894 6.33051 2.51552 7.45136 2.51552 8.69458C2.51552 9.94785 2.70396 11.0787 3.08109 12.0875C3.46828 13.086 4.04391 13.8757 4.80824 14.4564C5.57231 15.0373 6.53009 15.3277 7.6816 15.3277ZM12.618 24.2994V12.8823H12.8628V0.456539H14.8801V24.2994H12.618Z" fill="#63778A"/>
</svg>
