<svg width="11" height="23" viewBox="0 0 11 23" fill="none" xmlns="http://www.w3.org/2000/svg">
<path d="M10.9022 21.9631C9.97503 22.1566 9.05795 22.2329 8.15092 22.1922C7.25393 22.1515 6.44992 21.9578 5.73635 21.6113C5.03283 21.2651 4.49765 20.7249 4.13082 19.9915C3.83685 19.3799 3.67351 18.7636 3.64336 18.142C3.62326 17.5103 3.61321 16.792 3.61321 15.987V0.871338H5.84437V15.8953C5.84437 16.5882 5.84941 17.1689 5.85946 17.6377C5.87956 18.0963 5.98507 18.5038 6.18105 18.8603C6.54788 19.543 7.1283 19.9505 7.92227 20.0832C8.72628 20.2156 9.72126 20.185 10.9022 19.9915V21.9631ZM0.0805664 7.38224V5.45646H10.9022V7.38224H0.0805664Z" fill="#63778A"/>
</svg>
