<svg width="16" height="18" viewBox="0 0 16 18" fill="none" xmlns="http://www.w3.org/2000/svg">
<path d="M7.48014 17.3757C6.49195 17.3757 5.62587 17.223 4.8819 16.9172C4.14848 16.6114 3.52185 16.1989 3.002 15.6793C2.4927 15.1597 2.07989 14.5687 1.76406 13.9064C1.44823 13.2338 1.21909 12.5257 1.07637 11.7818C0.933659 11.0278 0.862305 10.279 0.862305 9.53504V0.456543H3.12436V8.878C3.12436 9.78479 3.21105 10.6255 3.38416 11.3999C3.55728 12.1742 3.8324 12.8516 4.20953 13.4325C4.59672 14.0031 5.09094 14.4463 5.69195 14.7622C6.30326 15.078 7.0422 15.236 7.90828 15.236C8.703 15.236 9.40099 15.0984 10.002 14.8232C10.6133 14.5481 11.1229 14.1559 11.5304 13.6466C11.9482 13.1267 12.2641 12.5001 12.4781 11.7664C12.6919 11.0227 12.799 10.1873 12.799 9.25991L14.3884 9.61167C14.3884 11.3029 14.093 12.7242 13.502 13.8757C12.911 15.027 12.096 15.8984 11.0565 16.4893C10.0173 17.0803 8.82512 17.3757 7.48014 17.3757ZM13.0281 16.9632V12.8976H12.799V0.456543H15.0457V16.9632H13.0281Z" fill="#63778A"/>
</svg>
